<svg width="290" height="94" viewBox="0 0 290 94" fill="none" xmlns="http://www.w3.org/2000/svg">
<path d="M22.9646 70V62.4159L42.8894 32.3791H23.8295V21.5685H60.4525L60.4857 29.6515L40.7273 59.5553H61.6167V70H22.9646ZM64.1114 54.7654V53.6677C64.1114 48.8334 65.819 44.9416 69.234 41.9922C72.649 39.0429 77.1729 37.5682 82.8055 37.5682C88.4602 37.5682 92.984 39.0429 96.3769 41.9922C99.792 44.9416 101.499 48.8334 101.499 53.6677V54.7654C101.499 59.6218 99.792 63.5247 96.3769 66.4741C92.984 69.4013 88.4602 70.8648 82.8055 70.8648C77.1507 70.8648 72.6158 69.4013 69.2007 66.4741C65.8079 63.5247 64.1114 59.6218 64.1114 54.7654ZM77.6829 53.1355V55.2643C77.6829 57.238 78.1153 58.8013 78.9802 59.9545C79.8672 61.0854 81.1423 61.6509 82.8055 61.6509C84.4686 61.6509 85.7326 61.0854 86.5975 59.9545C87.4845 58.8013 87.928 57.2269 87.928 55.2311V53.1355C87.928 51.184 87.4845 49.665 86.5975 48.5784C85.7105 47.4696 84.4464 46.9152 82.8055 46.9152C81.1645 46.9152 79.9005 47.4696 79.0134 48.5784C78.1264 49.665 77.6829 51.184 77.6829 53.1355ZM104.161 54.7321V53.6677C104.161 48.7447 105.824 44.8418 109.15 41.959C112.476 39.054 116.934 37.6015 122.522 37.6015C127.955 37.6015 132.168 39.0096 135.162 41.8259C138.156 44.6422 139.653 48.4675 139.653 53.3018V56.229H111.512V51.2395H126.713V50.8736C126.713 49.6317 126.347 48.6116 125.615 47.8133C124.906 47.015 123.819 46.6158 122.356 46.6158C120.781 46.6158 119.584 47.1813 118.763 48.3123C117.943 49.4211 117.532 50.8957 117.532 52.7363V54.9317C117.532 57.1936 117.976 58.9011 118.863 60.0543C119.772 61.1852 121.081 61.7507 122.788 61.7507C124.119 61.7507 125.216 61.4735 126.081 60.9191C126.946 60.3425 127.622 59.5997 128.11 58.6905L139.386 61.5178C138.3 64.5337 136.426 66.8511 133.765 68.4699C131.126 70.0665 127.511 70.8648 122.921 70.8648C117 70.8648 112.388 69.4345 109.084 66.5739C105.802 63.691 104.161 59.7438 104.161 54.7321ZM144.975 70V21.5685H151.627V42.1586H171.885V21.5685H178.537V70H171.885V47.7801H151.627V70H144.975ZM184.591 54.7986V53.7342C184.591 48.9665 185.933 45.1301 188.616 42.2251C191.3 39.2979 194.859 37.8343 199.294 37.8343C203.685 37.8343 207.055 39.1981 209.406 41.9257C211.779 44.6533 212.965 48.4453 212.965 53.3018V55.4306H188.184V51.2395H206.645V50.9068C206.645 48.7558 206.068 46.8709 204.915 45.252C203.762 43.6111 201.888 42.7906 199.294 42.7906C196.566 42.7906 194.504 43.7774 193.107 45.751C191.71 47.7246 191.011 50.2637 191.011 53.3683V54.8652C191.011 58.1693 191.754 60.8193 193.24 62.8151C194.726 64.8109 196.888 65.8088 199.726 65.8088C201.678 65.8088 203.33 65.4097 204.682 64.6113C206.035 63.813 207.089 62.7929 207.842 61.5511L212.699 64.1124C211.768 65.953 210.237 67.5274 208.109 68.8358C205.98 70.122 203.219 70.7651 199.826 70.7651C194.97 70.7651 191.211 69.3236 188.55 66.4408C185.911 63.5358 184.591 59.6551 184.591 54.7986ZM218.42 70V38.6659H224.707L224.74 42.9236H224.807C225.694 41.5044 226.836 40.3291 228.233 39.3977C229.63 38.4441 231.293 37.9674 233.222 37.9674C233.688 37.9674 234.187 38.0117 234.719 38.1004C235.274 38.1669 235.662 38.2446 235.884 38.3333V43.6554C235.484 43.5667 235.019 43.4891 234.486 43.4226C233.976 43.3339 233.411 43.2895 232.79 43.2895C231.193 43.2895 229.685 43.7995 228.266 44.8196C226.847 45.8175 225.738 47.1259 224.94 48.7447V70H218.42ZM237.214 54.7986V53.7342C237.214 48.9665 238.556 45.1301 241.239 42.2251C243.922 39.2979 247.481 37.8343 251.916 37.8343C256.307 37.8343 259.678 39.1981 262.029 41.9257C264.401 44.6533 265.588 48.4453 265.588 53.3018V55.4306H240.806V51.2395H259.268V50.9068C259.268 48.7558 258.691 46.8709 257.538 45.252C256.385 43.6111 254.511 42.7906 251.916 42.7906C249.189 42.7906 247.127 43.7774 245.729 45.751C244.332 47.7246 243.634 50.2637 243.634 53.3683V54.8652C243.634 58.1693 244.377 60.8193 245.863 62.8151C247.348 64.8109 249.51 65.8088 252.349 65.8088C254.3 65.8088 255.952 65.4097 257.305 64.6113C258.658 63.813 259.711 62.7929 260.465 61.5511L265.322 64.1124C264.39 65.953 262.86 67.5274 260.731 68.8358C258.602 70.122 255.842 70.7651 252.449 70.7651C247.592 70.7651 243.833 69.3236 241.172 66.4408C238.533 63.5358 237.214 59.6551 237.214 54.7986Z" fill="#329F9C"/>
</svg>
